# Blender 3.4.1
# www.blender.org
mtllib player2.mtl
o Cube
v -0.743954 4.437508 1.695572
v -1.222228 6.697374 0.876999
v -0.478292 4.605431 -0.047666
v -0.476151 5.507142 0.478303
v 0.509729 4.455249 1.635810
v 0.726847 6.630610 0.780623
v 0.107048 4.612525 -0.087479
v 0.261293 5.487258 0.443942
v -0.174340 5.666246 0.736912
v -0.087208 5.778718 2.213436
v -0.052760 4.264606 3.621545
v 0.398948 2.223138 1.309946
v 0.384024 1.218835 1.207669
v 0.411115 2.238871 1.522664
v 0.383103 1.165491 1.317104
v 0.175200 2.258006 1.190438
v 0.225714 1.224308 1.192271
v 0.075263 2.231081 1.555906
v 0.215508 1.174655 1.289663
v 1.996619 3.544890 0.838878
v 1.969972 3.482326 0.921342
v 2.000812 3.524049 1.359405
v 1.920416 3.485557 1.147138
v 0.466132 3.617660 0.736410
v 0.411517 3.548881 0.882715
v 0.557561 3.716467 1.042946
v 0.418200 3.650662 1.109589
v -2.115880 0.134561 1.046077
v -1.634046 5.083642 1.780921
v -1.216908 2.108343 0.133196
v -1.179771 6.099884 -0.703663
v 1.147941 0.253256 1.134875
v 1.390443 4.918123 1.386641
v 0.701536 1.974837 0.218889
v 0.621892 5.993289 -0.598363
v -1.004649 3.755717 1.695301
v -0.848128 3.869277 0.940727
v 0.433023 3.923433 0.591611
v 0.780631 3.843701 1.654109
v -0.585939 4.272492 1.207629
v 0.310611 4.378751 1.045954
v -0.767970 4.471343 1.712048
v -0.598222 4.544616 0.738011
v -0.491972 2.299664 1.717985
v -0.515355 3.886434 0.594007
v -0.365625 3.696818 1.792375
v 0.328311 4.602854 0.580647
v 0.270699 2.219376 1.690670
v -0.155118 0.456995 -0.836469
v 0.499356 4.412065 1.632047
v 0.127640 3.687292 1.608800
v 0.143452 3.897472 0.470285
v 0.532707 4.447164 1.652348
v -0.565576 1.129057 1.364751
v -0.671909 2.204656 1.568272
v -0.553203 1.213048 1.150249
v -0.610411 2.239320 1.173849
v -0.419232 1.134569 1.332629
v -0.382411 2.212723 1.522664
v -0.381536 1.201816 1.167433
v -0.336740 2.256084 1.101870
v -0.613876 -0.156017 1.182075
v -0.772985 1.643138 1.510661
v -0.563052 -0.154214 0.902381
v -0.685778 1.414885 1.111541
v -0.396379 -0.137349 1.173349
v -0.236450 1.626372 1.415769
v -0.367831 -0.152005 0.908707
v -0.359288 1.392731 1.029500
v -0.399153 0.184457 1.298710
v -0.491402 0.189737 1.285466
v -0.563833 -0.029787 1.410444
v -0.371130 -0.017433 1.444237
v -2.357411 3.555909 0.990074
v -2.292150 3.426917 1.032414
v -2.288140 3.723213 1.348905
v -2.281208 3.496575 1.298335
v -0.826924 3.628678 0.887606
v -0.772309 3.559899 1.033911
v -0.918353 3.727485 1.194142
v -0.778992 3.661680 1.260785
v -1.716797 3.341558 0.884256
v -2.372947 3.311955 0.927416
v -1.338167 3.898964 0.911438
v -2.297795 3.721992 0.773671
v -1.534448 3.526880 1.339309
v -2.390009 3.447955 1.330432
v -1.202640 4.110091 1.373385
v -2.475462 3.765358 1.466813
v -2.358875 3.576285 0.758854
v -7.374770 3.249258 1.525027
v 1.928878 3.305477 1.690749
v 2.164996 3.186747 2.432032
v 0.663428 3.889452 1.546286
v 0.369861 3.837873 2.317349
v 2.031187 3.371185 0.881122
v 2.049994 3.163529 0.316808
v 0.777307 3.895105 0.951401
v 0.209323 4.000095 0.310248
v 0.905885 3.875054 1.270271
v 1.119271 3.905672 1.272601
v 1.988473 3.272511 1.307796
v 4.401331 2.910520 1.515825
v 0.870001 3.882889 1.387027
v 2.964487 3.107830 2.229129
v 0.925605 3.951984 1.464632
v 1.941578 3.245924 1.535791
v 0.923810 3.985780 1.032796
v 2.007179 3.322826 1.094400
v 0.844715 3.901021 1.100565
v 2.770117 3.276423 0.518583
v -0.411156 -0.168230 1.846628
v -0.419556 -0.164514 1.445070
v 0.458746 -0.162615 1.163180
v 0.469541 1.689260 1.460768
v 0.403174 -0.160773 0.889347
v 0.407178 1.358996 1.195592
v 0.236501 -0.143908 1.160315
v -0.033229 1.669506 1.411227
v 0.207952 -0.158564 0.895673
v 0.088948 1.402936 1.035573
v 0.239275 0.177898 1.285676
v 0.375209 0.141328 1.300270
v 0.403955 -0.036346 1.397410
v 0.211251 -0.023992 1.431203
v 0.251278 -0.174789 1.833594
v 0.259678 -0.171073 1.432036
vn -0.9862 0.0852 -0.1421
vn -0.0256 0.5223 -0.8524
vn 0.2274 -0.7122 -0.6641
vn 0.0097 -0.9956 -0.0928
vn 0.0096 -0.9955 -0.0944
vn -0.3910 0.4029 -0.8275
vn 0.6917 0.7159 -0.0953
vn -0.0133 0.8914 0.4531
vn -0.8885 0.3015 0.3459
vn -0.6100 -0.5316 0.5876
vn -0.4736 -0.0216 0.8805
vn 0.9843 0.0928 0.1504
vn 0.1685 0.1812 -0.9689
vn -0.1006 -0.9898 -0.1004
vn -0.9984 0.0091 0.0564
vn -0.1098 -0.9057 0.4095
vn -0.0277 -0.9006 -0.4337
vn -0.5284 0.7803 -0.3345
vn 0.0529 0.6531 0.7555
vn 0.1237 0.9916 0.0387
vn 0.9681 -0.1298 0.2143
vn -0.8824 -0.4025 -0.2436
vn 0.3827 0.0441 -0.9228
vn 0.7957 -0.5263 -0.2998
vn -0.1478 0.0258 0.9887
vn -0.7591 -0.4669 0.4535
vn 0.8858 0.4405 0.1460
vn -0.0649 -0.8133 0.5781
vn 0.0420 0.0597 0.9973
vn -0.1843 0.1879 -0.9647
vn 0.3381 -0.2029 0.9190
vn -0.1779 0.3629 -0.9147
vn -0.2826 -0.0846 0.9555
vn 0.9657 0.1312 -0.2241
vn 0.5322 0.2598 -0.8057
vn -0.9225 0.3214 -0.2136
vn -0.2831 0.3437 -0.8954
vn -0.7216 0.0600 -0.6897
vn 0.8047 -0.5084 -0.3067
vn 0.3709 -0.0956 0.9237
vn -0.0702 0.0040 0.9975
vn -0.4324 0.8722 0.2286
vn -0.1208 0.9925 -0.0175
vn 0.0172 0.9006 0.4344
vn -0.7265 0.0929 0.6808
vn 0.8194 0.1482 0.5537
vn 0.9927 0.0813 0.0891
vn 0.2548 -0.0080 0.9670
vn -0.9939 0.0358 -0.1042
vn -0.2174 0.1766 -0.9600
vn 0.0223 0.9242 0.3813
vn 0.0350 -0.9945 -0.0987
vn 0.9447 -0.3268 -0.0264
vn 0.2352 -0.1103 0.9657
vn -0.9935 0.0339 -0.1090
vn -0.9487 0.3121 -0.0497
vn -0.0879 0.9940 -0.0645
vn 0.0672 -0.8630 0.5006
vn 0.1454 0.0637 -0.9873
vn 0.1191 -0.9336 -0.3380
vn 0.9784 0.1716 0.1156
vn 0.0928 -0.5156 -0.8518
vn -0.1098 0.9057 -0.4095
vn -0.0784 0.8906 0.4479
vn -0.5284 -0.7803 0.3345
vn 0.0529 -0.6531 -0.7555
vn 0.0496 -0.9088 0.4142
vn 0.9012 0.4087 -0.1441
vn 0.1992 -0.3759 -0.9050
vn -0.2692 0.9034 -0.3339
vn 0.1042 -0.1170 0.9877
vn 0.0826 -0.9341 0.3473
vn 0.8250 -0.5553 -0.1044
vn 0.0513 -0.3826 0.9225
vn 0.0502 -0.9457 0.3212
vn -0.1040 0.9565 -0.2726
vn -0.0939 -0.5317 -0.8417
vn -0.3901 -0.8969 -0.2085
vn -0.6046 0.7586 0.2431
vn -0.3512 -0.8824 0.3130
vn -0.3331 -0.8890 0.3143
vn -0.4328 -0.8675 -0.2454
vn 0.1980 0.8762 0.4394
vn 0.3624 0.9319 0.0159
vn -0.4988 -0.8614 -0.0955
vn -0.2403 -0.9399 -0.2427
vn -0.6086 0.7570 -0.2379
vn -0.3416 0.8101 -0.4765
vn -0.3431 -0.8450 -0.4102
vn 0.2611 0.9269 0.2695
vn -0.0487 -0.9909 -0.1256
vn -0.2385 -0.9410 -0.2402
vn 0.3863 0.8470 -0.3652
vn -0.4655 -0.8514 -0.2416
vn -0.5534 0.7701 0.3173
vn -0.9958 0.0126 -0.0909
vn 0.6835 0.7300 -0.0075
vn 0.1779 -0.5591 -0.8098
vn 0.9135 -0.3725 0.1636
vn 0.9700 0.2170 0.1099
vn -0.0295 0.1975 -0.9799
vn -0.9935 -0.0339 0.1090
vn -0.9487 -0.3121 0.0497
vn -0.0845 -0.9944 0.0642
vn 0.3464 0.8145 -0.4653
vn -0.0937 -0.1005 0.9905
vn 0.1191 0.9336 0.3380
vn 0.9828 -0.0413 -0.1798
vn 0.0363 0.4839 0.8744
vn -0.9838 -0.0889 0.1557
vn 0.6835 -0.7300 0.0075
vn 0.1779 0.5591 0.8098
vn 0.9231 0.3372 -0.1851
vn -0.8065 -0.3447 -0.4803
vn -0.0647 0.5029 -0.8619
vn -0.0014 0.8524 -0.5228
vn 0.9726 -0.0317 -0.2302
vn 0.8823 -0.2401 -0.4048
vn 0.0058 -0.9957 -0.0922
vn -0.7304 0.6830 -0.0089
vn 0.3932 0.5041 -0.7690
vn -0.0226 0.8987 0.4379
vn 0.9140 0.2872 0.2865
vn -0.0997 -0.0993 0.9900
vn 0.9626 0.0475 0.2667
vn -0.1011 0.2305 -0.9678
vn 0.0303 -0.9969 0.0720
vn -0.9997 0.0253 0.0039
vn -0.0428 -0.9991 0.0049
vn 0.0025 -0.7971 -0.6039
vn -0.7628 0.6464 0.0191
vn -0.1800 -0.9537 0.2411
vn 0.0666 0.9437 -0.3240
vn 0.5123 -0.8579 -0.0385
vn -0.8817 -0.3578 -0.3076
vn -0.9058 -0.1460 -0.3978
vn 0.7882 -0.3592 -0.4997
vn 0.0509 -0.0402 0.9979
vn 0.8276 -0.0809 -0.5554
vn 0.7581 0.5727 0.3120
vn 0.5500 0.7329 0.4003
vn 0.3463 -0.0811 0.9346
vn -0.1762 0.1971 -0.9644
vn 0.0688 0.1382 0.9880
vn -0.1536 -0.0387 0.9874
vn 0.9380 0.1853 -0.2930
vn 0.3597 0.2229 -0.9061
vn -0.9499 0.2706 -0.1563
vn -0.6644 0.4220 -0.6168
vn 0.5836 -0.4239 -0.6927
vn -0.6602 -0.6478 0.3802
vn -0.0805 0.0477 0.9956
vn 0.1923 0.1329 0.9723
vn -0.5918 0.5904 0.5489
vn -0.8090 0.5410 0.2298
vn 0.0209 0.9327 -0.3601
vn -0.0121 0.8650 0.5016
vn 0.9861 0.0513 0.1583
vn -0.0951 0.0658 0.9933
vn -0.9783 0.0679 -0.1956
vn -0.1580 0.1685 -0.9730
vn 0.0454 0.9293 0.3665
vn 0.0143 -0.9963 -0.0853
vn -0.0314 -0.0777 0.9965
vn -0.9918 -0.0538 0.1163
vn -0.9496 0.3128 0.0228
vn -0.0115 0.9999 0.0044
vn -0.0815 0.9924 0.0923
vn 0.0626 -0.8604 0.5057
vn -0.1693 0.1188 -0.9784
vn 0.9538 0.1118 -0.2787
vn -0.0842 0.9648 -0.2493
vn 0.0472 0.3330 0.9417
vn -0.7628 -0.6464 -0.0191
vn -0.1103 0.2132 -0.9708
vn 0.0666 -0.9437 0.3240
vn 0.9712 0.0798 -0.2247
vn -0.0696 0.0957 -0.9930
vn 0.8509 -0.3139 -0.4212
vn -0.1659 0.9806 -0.1039
vn 0.0263 -0.3887 0.9210
vn 0.0638 -0.9448 0.3215
vn 0.8695 -0.4930 -0.0298
vn -0.8833 0.3958 -0.2512
vn -0.3382 -0.9401 -0.0428
vn -0.6302 0.4508 0.6321
vn -0.4049 -0.8892 0.2131
vn -0.1270 -0.9849 -0.1173
vn -0.3679 -0.9076 0.2023
vn 0.3051 0.8973 0.3189
vn 0.2968 0.9448 -0.1388
vn -0.4715 -0.8595 -0.1972
vn -0.1352 -0.9810 -0.1388
vn -0.1291 0.9264 -0.3536
vn -0.2397 0.9705 -0.0263
vn -0.5194 -0.8110 0.2691
vn 0.3413 0.9324 0.1193
vn -0.1465 -0.9890 -0.0216
vn 0.0498 -0.9368 0.3464
vn 0.0820 0.7160 -0.6933
vn -0.4451 -0.8952 0.0235
vn -0.1339 0.9020 0.4105
vn -0.9634 0.0882 0.2531
vn 0.6603 0.5866 -0.4689
vn 0.4588 0.1139 -0.8812
vn -0.9918 0.0538 -0.1163
vn -0.9496 -0.3128 -0.0228
vn -0.0115 -0.9999 -0.0044
vn -0.0823 -0.9923 -0.0922
vn 0.0529 0.6191 -0.7835
vn -0.1313 -0.0943 0.9868
vn 0.9965 -0.0191 0.0819
vn -0.9665 -0.1596 -0.2011
vn 0.6600 -0.5859 0.4702
vt 0.166545 0.514915
vt 0.728481 0.645280
vt 0.864916 0.774149
vt 0.166545 0.806472
vt 0.698619 0.774149
vt 0.217658 0.900542
vt 0.217883 0.391039
vt 0.778275 0.761243
vt 0.212652 0.822778
vt 0.269292 0.806472
vt 0.263269 0.534709
vt 0.905556 0.125599
vt 0.070747 0.890202
vt 0.786014 0.254863
vt 0.164522 0.843602
vt 0.263542 0.900542
vt 0.958816 0.254863
vt 0.263269 0.399369
vt 0.070747 0.812662
vt 0.270147 0.824761
vt 0.878221 0.247206
vt 0.232659 0.806472
vt 0.088233 0.805667
vt 0.255751 0.782163
vt 0.228382 0.670839
vt 0.849022 0.638466
vt 0.000000 0.815072
vt 0.164522 0.718599
vt 0.792484 0.148200
vt 0.184942 0.670839
vt 0.775965 0.492901
vt 0.845414 0.000000
vt 0.827913 0.774149
vt 0.683092 0.852804
vt 0.738222 0.433789
vt 0.649600 0.754177
vt 0.821241 0.877925
vt 0.846801 0.897990
vt 0.738222 0.479938
vt 0.782580 0.792756
vt 0.860800 0.813550
vt 0.813302 0.872664
vt 0.727104 0.458961
vt 0.654791 0.846427
vt 0.827913 0.897481
vt 0.651460 0.734862
vt 0.633366 0.852804
vt 0.863934 0.904105
vt 0.720218 0.480762
vt 0.646651 0.723707
vt 0.826125 0.909929
vt 0.863934 0.774149
vt 0.111656 0.846647
vt 0.151583 0.967993
vt 0.145990 0.966421
vt 0.070747 0.843602
vt 0.111656 0.970920
vt 0.128263 0.963629
vt 0.151583 0.847047
vt 0.111656 0.967199
vt 0.141018 0.843602
vt 0.099806 0.970908
vt 0.126866 0.855555
vt 0.088134 0.958096
vt 0.082099 0.968878
vt 0.122038 0.845051
vt 0.297410 0.391039
vt 0.625137 0.492901
vt 0.673024 0.492901
vt 0.484270 0.123316
vt 0.259226 0.000000
vt 0.786014 0.293666
vt 0.648454 0.320579
vt 0.786014 0.131274
vt 0.660387 0.569534
vt 0.648454 0.000000
vt 0.814164 0.483404
vt 0.786014 0.427977
vt 0.319450 0.000000
vt 0.000000 0.391039
vt 0.484270 0.723707
vt 0.311143 0.373293
vt 0.019450 0.018876
vt 0.927247 0.281209
vt 0.554516 0.677936
vt 0.395952 0.139692
vt 0.648454 0.433789
vt 0.484270 0.446024
vt 0.927247 0.464805
vt 0.211874 0.105746
vt 0.501288 0.219905
vt 0.553906 0.197298
vt 0.777634 0.281134
vt 0.673580 0.289353
vt 0.385638 0.296892
vt 0.297411 0.297088
vt 0.072365 0.101688
vt 0.862486 0.275879
vt 0.736415 0.793814
vt 0.862486 0.296670
vt 0.734676 0.865833
vt 0.829275 0.254863
vt 0.192247 0.049733
vt 0.773430 0.774149
vt 0.862486 0.317052
vt 0.757889 0.332176
vt 0.699649 0.799366
vt 0.169791 0.222212
vt 0.525705 0.531279
vt 0.746535 0.279916
vt 0.163518 0.111067
vt 0.698619 0.873521
vt 0.684232 0.340926
vt 0.863418 0.336909
vt 0.490801 0.573545
vt 0.115725 0.228641
vt 0.484270 0.021639
vt 0.694409 0.002206
vt 0.679459 0.689593
vt 0.092822 0.056589
vt 0.886586 0.254863
vt 0.782580 0.873521
vt 0.122886 0.113135
vt 0.693849 0.283627
vt 0.400872 0.296227
vt 0.070747 0.718599
vt 0.905491 0.123684
vt 0.646651 0.723707
vt 0.863934 0.774149
vt 0.826125 0.909929
vt 0.633366 0.852804
vt 0.863934 0.904105
vt 0.720218 0.480762
vt 0.651460 0.734862
vt 0.827913 0.897481
vt 0.654791 0.846427
vt 0.727104 0.458961
vt 0.860800 0.813550
vt 0.813302 0.872664
vt 0.782580 0.792756
vt 0.846801 0.897990
vt 0.738222 0.479938
vt 0.649600 0.754177
vt 0.821241 0.877925
vt 0.827913 0.774149
vt 0.738222 0.433789
vt 0.683092 0.852804
vt 0.388917 0.902171
vt 0.579594 0.890591
vt 0.439456 0.772570
vt 0.655465 0.485559
vt 0.278028 0.782397
vt 0.291457 0.625286
vt 0.578939 0.869468
vt 0.368913 0.897099
vt 0.291457 0.515450
vt 0.648454 0.457086
vt 0.408895 0.794063
vt 0.314149 0.792321
vt 0.559476 0.882912
vt 0.673633 0.479769
vt 0.297011 0.783333
vt 0.368913 0.916797
vt 0.297411 0.799278
vt 0.270680 0.623490
vt 0.558552 0.864794
vt 0.673633 0.433789
vt 0.263269 0.522928
vt 0.322561 0.896187
vt 0.297011 0.900909
vt 0.751511 0.433789
vt 0.329178 0.806343
vt 0.738222 0.440518
vt 0.282173 0.899644
vt 0.400084 0.882804
vt 0.439456 0.913657
vt 0.751511 0.479711
vt 0.368913 0.772570
vt 0.579594 0.943342
vt 0.329506 0.788909
vt 0.558207 0.898595
vt 0.693321 0.846329
vt 0.293709 0.391039
vt 0.277945 0.625615
vt 0.266394 0.625286
vt 0.482801 0.697456
vt 0.683092 0.842302
vt 0.263269 0.394483
vt 0.927247 0.371456
vt 0.277945 0.657277
vt 0.461900 0.696378
vt 0.945502 0.372734
vt 0.263269 0.646370
vt 0.693321 0.725856
vt 0.293709 0.511492
vt 0.688214 0.723707
vt 0.482801 0.577411
vt 0.283113 0.515450
vt 0.940473 0.264007
vt 0.269007 0.502751
vt 0.464998 0.577627
vt 0.264152 0.513674
vt 0.945502 0.254863
vt 0.667229 0.852804
vt 0.958816 0.445482
vt 0.961785 0.506122
vt 0.961573 0.394054
vt 0.963535 0.557736
vt 0.999551 0.479584
vt 0.882768 0.972361
vt 0.667229 0.893831
vt 0.989991 0.405768
vt 0.866373 0.897302
vt 1.000000 0.492901
vt 0.919760 0.524657
vt 0.633366 0.875575
vt 0.922772 0.591344
vt 0.996660 0.559997
vt 0.919760 0.980921
vt 0.961785 0.492901
vt 0.634408 0.918923
vt 0.949038 0.595974
vt 0.919760 0.879416
vt 0.978966 0.399877
vt 0.864916 0.892158
vt 0.961785 0.979894
vt 1.000000 0.952016
vt 0.895707 0.492901
vt 0.999551 0.000000
vt 0.354470 0.576025
vt 0.297410 0.590921
vt 0.000000 0.565704
vt 0.351474 0.476267
vt 0.278028 0.807039
vt 0.308093 0.448169
vt 0.008414 0.705179
vt 0.271946 0.847435
vt 0.415488 0.588273
vt 0.461900 0.593651
vt 0.166545 0.576154
vt 0.475873 0.710022
vt 0.410358 0.487471
vt 0.166545 0.718599
vt 0.483617 0.767661
vt 0.461900 0.446025
vt 0.385212 0.495881
vt 0.091249 0.663528
vt 0.091215 0.646638
vt 0.384163 0.582941
vt 0.073327 0.391039
vt 0.358430 0.772570
vt 0.082035 0.666257
vt 0.278028 0.782397
vt 0.376298 0.492390
vt 0.016409 0.503125
vt 0.309314 0.655098
vt 0.270786 0.787642
vt 0.076004 0.661627
vt 0.367204 0.578103
vt 0.483617 0.701064
vt 0.110045 0.661940
vt 0.399833 0.585396
vt 0.475914 0.697456
vt 0.104599 0.668374
vt 0.398335 0.491917
vt 0.440321 0.648637
vt 0.151163 0.519003
vt 0.348944 0.780850
vt 0.568756 0.920667
vt 0.570575 0.887149
vt 0.388917 0.902171
vt 0.579594 0.890591
vt 0.439456 0.772570
vt 0.655465 0.485559
vt 0.278028 0.782397
vt 0.291457 0.625286
vt 0.578939 0.869468
vt 0.368913 0.897099
vt 0.291457 0.515450
vt 0.648454 0.457086
vt 0.408895 0.794063
vt 0.314149 0.792321
vt 0.559476 0.882912
vt 0.297011 0.783333
vt 0.673633 0.479769
vt 0.368913 0.916797
vt 0.297411 0.799278
vt 0.270680 0.623490
vt 0.558552 0.864794
vt 0.673633 0.433789
vt 0.263269 0.522928
vt 0.322561 0.896187
vt 0.751511 0.433789
vt 0.297011 0.900909
vt 0.329178 0.806343
vt 0.738222 0.440518
vt 0.282173 0.899644
vt 0.400084 0.882804
vt 0.439456 0.913657
vt 0.751511 0.479711
vt 0.368913 0.772570
vt 0.579594 0.943342
vt 0.329506 0.788909
vt 0.558207 0.898595
vt 0.348944 0.780850
vt 0.568756 0.920667
vt 0.570575 0.887149
s 0
f 1/2/1 4/8/1 3/5/1
f 4/9/2 8/20/2 7/16/2
f 8/21/3 53/127/3 5/12/3
f 5/11/4 11/30/4 1/1/4
f 3/7/5 5/11/5 1/1/5
f 9/23/6 6/15/6 8/19/6
f 9/24/7 2/4/7 10/25/7
f 19/51/8 13/37/8 17/45/8
f 1/2/9 11/31/9 10/26/9
f 10/29/10 5/12/10 53/127/10
f 17/46/11 12/34/11 16/44/11
f 17/46/12 18/47/12 19/50/12
f 19/52/13 14/38/13 15/41/13
f 12/35/14 18/49/14 16/43/14
f 13/37/15 14/40/15 12/33/15
f 25/61/16 23/58/16 27/66/16
f 24/59/17 21/55/17 25/61/17
f 26/64/18 25/62/18 27/65/18
f 23/58/19 26/63/19 27/66/19
f 20/53/20 26/64/20 22/56/20
f 20/54/21 23/58/21 21/55/21
f 29/70/22 37/92/22 36/91/22
f 47/113/23 38/94/23 52/124/23
f 38/95/24 33/82/24 39/96/24
f 42/103/25 36/90/25 46/111/25
f 49/119/26 32/81/26 48/115/26
f 31/77/27 42/102/27 40/98/27
f 49/119/28 48/115/28 44/109/28
f 51/123/29 44/108/29 48/116/29
f 43/106/30 52/124/30 45/110/30
f 50/120/31 46/111/31 51/123/31
f 45/110/32 52/124/32 49/118/32
f 44/108/33 36/90/33 28/67/33
f 34/86/34 39/96/34 32/79/34
f 52/125/35 34/86/35 49/117/35
f 36/91/36 30/73/36 28/68/36
f 30/74/37 45/110/37 49/118/37
f 37/93/38 43/106/38 45/110/38
f 30/75/39 44/109/39 28/69/39
f 39/97/40 48/116/40 32/80/40
f 39/97/41 50/120/41 51/123/41
f 47/114/42 50/121/42 33/84/42
f 40/99/43 50/122/43 41/101/43
f 43/107/44 41/101/44 47/112/44
f 10/26/45 2/3/45 1/2/45
f 53/126/46 6/13/46 10/27/46
f 56/134/47 55/131/47 54/128/47
f 56/134/48 61/147/48 57/136/48
f 60/144/49 59/140/49 61/145/49
f 54/129/50 59/141/50 58/138/50
f 56/135/51 58/139/51 60/144/51
f 59/142/52 57/137/52 61/146/52
f 62/148/53 71/175/53 72/176/53
f 64/153/54 69/168/54 65/156/54
f 66/159/55 70/172/55 68/164/55
f 113/270/56 73/181/56 66/160/56
f 62/149/57 66/160/57 68/166/57
f 67/161/58 65/157/58 69/167/58
f 71/174/59 67/162/59 70/170/59
f 73/180/60 112/268/60 72/178/60
f 71/175/61 65/158/61 63/150/61
f 70/171/62 72/177/62 71/173/62
f 79/197/63 77/191/63 81/201/63
f 78/194/64 75/187/64 79/196/64
f 80/200/65 79/198/65 81/202/65
f 77/192/66 80/199/66 81/203/66
f 74/183/67 80/200/67 76/188/67
f 74/184/68 77/193/68 75/185/68
f 83/207/69 85/212/69 84/209/69
f 84/210/70 89/223/70 88/219/70
f 89/222/71 86/215/71 88/220/71
f 87/218/72 82/206/72 86/214/72
f 84/211/73 86/216/73 82/204/73
f 89/222/74 91/226/74 87/217/74
f 87/218/75 91/227/75 83/208/75
f 89/223/76 90/225/76 91/228/76
f 83/207/77 91/229/77 90/224/77
f 92/230/78 95/235/78 94/233/78
f 108/260/79 98/241/79 110/263/79
f 98/242/80 97/239/80 96/238/80
f 105/256/81 92/230/81 107/259/81
f 110/265/82 96/238/82 109/262/82
f 106/258/83 93/232/83 105/255/83
f 101/248/84 111/267/84 108/261/84
f 100/246/85 107/259/85 104/254/85
f 111/266/86 102/249/86 109/262/86
f 106/258/87 100/247/87 104/252/87
f 94/234/88 106/257/88 104/253/88
f 104/254/89 92/230/89 94/233/89
f 101/248/90 105/255/90 103/250/90
f 102/249/91 105/256/91 107/259/91
f 96/238/92 111/266/92 109/262/92
f 108/261/93 97/240/93 99/243/93
f 100/246/94 109/262/94 102/249/94
f 100/247/95 108/261/95 110/264/95
f 70/172/96 69/169/96 68/164/96
f 113/270/97 72/179/97 112/269/97
f 72/178/98 70/172/98 73/180/98
f 71/175/99 62/148/99 64/155/99
f 114/271/100 123/298/100 124/299/100
f 120/288/101 117/279/101 116/276/101
f 118/282/102 122/295/102 120/287/102
f 127/307/103 125/304/103 118/283/103
f 114/272/104 118/283/104 120/289/104
f 119/285/105 117/280/105 121/290/105
f 122/294/106 115/275/106 119/284/106
f 125/303/107 126/305/107 124/301/107
f 123/298/108 117/281/108 115/273/108
f 122/293/109 124/300/109 123/296/109
f 122/295/110 121/292/110 120/287/110
f 127/307/111 124/302/111 126/306/111
f 124/301/112 122/295/112 125/303/112
f 123/298/113 114/271/113 116/278/113
f 1/2/114 2/3/114 4/8/114
f 7/16/115 3/6/115 4/9/115
f 4/9/116 9/22/116 8/20/116
f 5/12/117 7/17/117 8/21/117
f 8/21/118 6/14/118 53/127/118
f 3/7/119 7/18/119 5/11/119
f 9/23/120 10/28/120 6/15/120
f 9/24/121 4/10/121 2/4/121
f 19/51/122 15/42/122 13/37/122
f 10/29/123 11/32/123 5/12/123
f 17/46/124 13/36/124 12/34/124
f 17/46/125 16/44/125 18/47/125
f 19/52/126 18/48/126 14/38/126
f 12/35/127 14/39/127 18/49/127
f 13/37/128 15/42/128 14/40/128
f 25/61/129 21/55/129 23/58/129
f 24/59/130 20/54/130 21/55/130
f 26/64/131 24/60/131 25/62/131
f 23/58/132 22/57/132 26/63/132
f 20/53/133 24/60/133 26/64/133
f 20/54/134 22/57/134 23/58/134
f 29/70/135 31/76/135 37/92/135
f 47/113/136 35/87/136 38/94/136
f 38/95/137 35/88/137 33/82/137
f 42/103/138 29/71/138 36/90/138
f 49/119/139 34/85/139 32/81/139
f 40/98/140 43/105/140 31/77/140
f 31/77/141 29/72/141 42/102/141
f 51/123/142 46/111/142 44/108/142
f 43/106/143 47/113/143 52/124/143
f 50/120/144 42/103/144 46/111/144
f 44/108/145 46/111/145 36/90/145
f 34/86/146 38/95/146 39/96/146
f 52/125/147 38/95/147 34/86/147
f 36/91/148 37/92/148 30/73/148
f 30/74/149 37/93/149 45/110/149
f 37/93/150 31/78/150 43/106/150
f 30/75/151 49/119/151 44/109/151
f 39/97/152 51/123/152 48/116/152
f 39/97/153 33/83/153 50/120/153
f 33/84/154 35/89/154 47/114/154
f 47/114/155 41/100/155 50/121/155
f 40/99/156 42/104/156 50/122/156
f 43/107/157 40/99/157 41/101/157
f 56/134/158 57/136/158 55/131/158
f 56/134/159 60/143/159 61/147/159
f 60/144/160 58/139/160 59/140/160
f 54/129/161 55/132/161 59/141/161
f 56/135/162 54/130/162 58/139/162
f 59/142/163 55/133/163 57/137/163
f 64/153/164 68/165/164 69/168/164
f 66/159/165 73/180/165 70/172/165
f 113/270/166 112/269/166 73/181/166
f 68/166/167 64/154/167 62/149/167
f 62/149/168 113/270/168 66/160/168
f 67/161/169 63/151/169 65/157/169
f 71/174/170 63/152/170 67/162/170
f 71/175/171 64/155/171 65/158/171
f 79/197/172 75/186/172 77/191/172
f 78/194/173 74/182/173 75/187/173
f 80/200/174 78/195/174 79/198/174
f 77/192/175 76/189/175 80/199/175
f 74/183/176 78/195/176 80/200/176
f 74/184/177 76/190/177 77/193/177
f 84/209/178 82/205/178 83/207/178
f 83/207/179 90/224/179 85/212/179
f 84/210/180 85/213/180 89/223/180
f 89/222/181 87/217/181 86/215/181
f 87/218/182 83/208/182 82/206/182
f 84/211/183 88/221/183 86/216/183
f 89/223/184 85/213/184 90/225/184
f 92/230/185 93/231/185 95/235/185
f 108/260/186 99/244/186 98/241/186
f 98/242/187 99/245/187 97/239/187
f 105/256/188 93/231/188 92/230/188
f 110/265/189 98/242/189 96/238/189
f 106/258/190 95/236/190 93/232/190
f 101/248/191 103/250/191 111/267/191
f 100/246/192 102/249/192 107/259/192
f 111/266/193 103/251/193 102/249/193
f 106/258/194 101/248/194 100/247/194
f 94/234/195 95/237/195 106/257/195
f 104/254/196 107/259/196 92/230/196
f 101/248/197 106/258/197 105/255/197
f 102/249/198 103/251/198 105/256/198
f 96/238/199 97/239/199 111/266/199
f 108/261/200 111/267/200 97/240/200
f 100/246/201 110/265/201 109/262/201
f 100/247/202 101/248/202 108/261/202
f 70/172/203 67/163/203 69/169/203
f 113/270/204 62/149/204 72/179/204
f 120/288/205 121/291/205 117/279/205
f 118/282/206 125/303/206 122/295/206
f 127/307/207 126/306/207 125/304/207
f 120/289/208 116/277/208 114/272/208
f 114/272/209 127/307/209 118/283/209
f 119/285/210 115/274/210 117/280/210
f 122/294/211 123/297/211 115/275/211
f 123/298/212 116/278/212 117/281/212
f 122/295/213 119/286/213 121/292/213
f 127/307/214 114/272/214 124/302/214
